<svg width="24" height="23" viewBox="0 0 24 23" fill="none" xmlns="http://www.w3.org/2000/svg">
<path d="M5.64505 5.41501V2.13062C5.64505 1.41216 6.20955 0.847656 6.92801 0.847656C7.64647 0.847656 8.21098 1.41216 8.21098 2.13062V5.41501C8.21098 6.13347 7.64647 6.69798 6.92801 6.69798C6.20955 6.69798 5.64505 6.13347 5.64505 5.41501ZM16.6785 6.69798C17.397 6.69798 17.9615 6.13347 17.9615 5.41501V2.13062C17.9615 1.41216 17.397 0.847656 16.6785 0.847656C15.9601 0.847656 15.3956 1.41216 15.3956 2.13062V5.41501C15.3956 6.13347 15.9601 6.69798 16.6785 6.69798ZM23.6066 3.77282V21.1185C23.6066 21.683 23.1447 22.1449 22.5802 22.1449H1.02637C0.461867 22.1449 0 21.683 0 21.1185V3.77282C0 3.20831 0.461867 2.64381 1.02637 2.64381H3.41269C3.97719 2.64381 4.43906 3.10567 4.43906 3.67018C4.43906 4.23468 3.97719 4.69655 3.41269 4.69655H2.05274V9.05863H21.5538V4.69655H20.1939C19.6294 4.69655 19.1675 4.23468 19.1675 3.67018C19.1675 3.10567 19.6294 2.64381 20.1939 2.64381H22.5802C23.1447 2.64381 23.6066 3.20831 23.6066 3.77282ZM21.5538 20.0921V10.8548H2.05274V20.0921H21.5538ZM10.1867 4.69655H13.4198C13.9843 4.69655 14.4462 4.23468 14.4462 3.67018C14.4462 3.10567 13.9843 2.64381 13.4198 2.64381H10.1867C9.62224 2.64381 9.16037 3.10567 9.16037 3.67018C9.16037 4.23468 9.62224 4.69655 10.1867 4.69655Z" fill="#0099FF"/>
</svg>
