<svg width="24" height="25" viewBox="0 0 24 25" fill="none" xmlns="http://www.w3.org/2000/svg">
<path d="M12 0.821289C5.37391 0.821289 0 6.1952 0 12.8213C0 19.4474 5.37391 24.8213 12 24.8213C18.6261 24.8213 24 19.4474 24 12.8213C24 6.1952 18.6261 0.821289 12 0.821289ZM12 22.7343C6.52174 22.7343 2.08696 18.2995 2.08696 12.8213C2.08696 7.34303 6.52174 2.90825 12 2.90825C17.4783 2.90825 21.913 7.34303 21.913 12.8213C21.913 18.2995 17.4783 22.7343 12 22.7343ZM15.9913 15.3256C16.4087 15.743 16.4087 16.3952 15.9913 16.8126C15.7826 17.0213 15.5217 17.1256 15.2609 17.1256C15 17.1256 14.7391 17.0213 14.5304 16.8126L11.2696 13.5517C11.0609 13.3691 10.9565 13.1082 10.9565 12.8213V6.61259C10.9565 6.03868 11.4261 5.56912 12 5.56912C12.5739 5.56912 13.0435 6.03868 13.0435 6.61259V12.4039L15.9913 15.3256Z" fill="#0099FF"/>
</svg>
