<svg width="32" height="32" viewBox="0 0 32 32" fill="none" xmlns="http://www.w3.org/2000/svg">
<g id="mdi:window-close">
<path id="Vector" d="M17.9465 16L24.93 22.9835C25.1881 23.2416 25.3332 23.5917 25.3332 23.9568C25.3332 24.717 24.7169 25.3333 23.9567 25.3333C23.5916 25.3333 23.2415 25.1883 22.9833 24.9301L15.9998 17.9466L9.01634 24.9301C8.75819 25.1883 8.40808 25.3333 8.043 25.3333C7.28278 25.3333 6.6665 24.717 6.6665 23.9568C6.6665 23.5917 6.81153 23.2416 7.06967 22.9835L14.0532 16L7.06967 9.01646C6.81153 8.75832 6.6665 8.4082 6.6665 8.04313C6.6665 7.28291 7.28278 6.66663 8.04301 6.66663C8.40808 6.66663 8.75819 6.81165 9.01634 7.06979L15.9998 14.0533L22.9833 7.06979C23.2415 6.81165 23.5916 6.66663 23.9567 6.66663C24.7169 6.66663 25.3332 7.28291 25.3332 8.04313C25.3332 8.4082 25.1881 8.75832 24.93 9.01646L17.9465 16Z" fill="black" fill-opacity="0.4"/>
</g>
</svg>
