<svg width="288" height="44" viewBox="0 0 288 44" fill="none" xmlns="http://www.w3.org/2000/svg">
<path d="M6.40954 35.5189C5.55902 35.5189 4.90696 35.2921 4.45335 34.8385C3.99974 34.3565 3.77293 33.6761 3.77293 32.7973V16.7224C3.77293 15.8436 3.99974 15.1773 4.45335 14.7237C4.90696 14.2701 5.54485 14.0433 6.36702 14.0433C7.18918 14.0433 7.82707 14.2701 8.28068 14.7237C8.73429 15.1773 8.9611 15.8436 8.9611 16.7224V19.8268L8.49331 18.5511C9.06033 17.1335 9.9392 16.0137 11.1299 15.1915C12.3207 14.3693 13.7382 13.9583 15.3825 13.9583C17.0552 13.9583 18.4302 14.3552 19.5075 15.149C20.5849 15.9428 21.3362 17.1619 21.7614 18.8062H21.1661C21.7331 17.3036 22.6686 16.1271 23.9728 15.2766C25.2769 14.3977 26.7795 13.9583 28.4805 13.9583C30.0682 13.9583 31.3723 14.2701 32.3929 14.8938C33.4419 15.5175 34.2215 16.4673 34.7318 17.7431C35.2421 18.9905 35.4973 20.5781 35.4973 22.506V32.7973C35.4973 33.6761 35.2563 34.3565 34.7744 34.8385C34.3208 35.2921 33.6687 35.5189 32.8182 35.5189C31.9677 35.5189 31.3156 35.2921 30.862 34.8385C30.4084 34.3565 30.1816 33.6761 30.1816 32.7973V22.7186C30.1816 21.131 29.9122 19.9686 29.3736 19.2315C28.8633 18.4944 27.9844 18.1258 26.737 18.1258C25.3478 18.1258 24.2563 18.6219 23.4625 19.6142C22.6686 20.5781 22.2717 21.9248 22.2717 23.6542V32.7973C22.2717 33.6761 22.0449 34.3565 21.5913 34.8385C21.1377 35.2921 20.4856 35.5189 19.6351 35.5189C18.7846 35.5189 18.1184 35.2921 17.6364 34.8385C17.1828 34.3565 16.956 33.6761 16.956 32.7973V22.7186C16.956 21.131 16.6867 19.9686 16.148 19.2315C15.6377 18.4944 14.773 18.1258 13.5539 18.1258C12.1647 18.1258 11.0732 18.6219 10.2794 19.6142C9.48559 20.5781 9.08868 21.9248 9.08868 23.6542V32.7973C9.08868 34.6117 8.19563 35.5189 6.40954 35.5189ZM46.5521 35.604C45.0495 35.604 43.7028 35.3205 42.5121 34.7535C41.3497 34.1581 40.4283 33.3643 39.7479 32.372C39.0958 31.3797 38.7698 30.2599 38.7698 29.0124C38.7698 27.4815 39.1667 26.2766 39.9605 25.3977C40.7544 24.4905 42.0443 23.8385 43.8304 23.4415C45.6165 23.0446 48.0121 22.8462 51.0173 22.8462H53.1436V25.908H51.0598C49.3021 25.908 47.8987 25.9931 46.8497 26.1632C45.8008 26.3333 45.0495 26.631 44.5959 27.0562C44.1706 27.4532 43.958 28.0202 43.958 28.7573C43.958 29.6929 44.284 30.4583 44.9361 31.0537C45.5881 31.6491 46.4954 31.9467 47.6577 31.9467C48.5933 31.9467 49.4155 31.7341 50.1242 31.3088C50.8614 30.8552 51.4425 30.2457 51.8678 29.4802C52.2931 28.7148 52.5057 27.8359 52.5057 26.8436V21.9531C52.5057 20.5356 52.1938 19.515 51.5701 18.8913C50.9464 18.2675 49.8974 17.9557 48.4232 17.9557C47.601 17.9557 46.708 18.0549 45.7441 18.2534C44.8085 18.4518 43.8162 18.792 42.7673 19.274C42.2286 19.5292 41.7466 19.6 41.3214 19.4866C40.9245 19.3732 40.6126 19.1464 40.3858 18.8062C40.159 18.4377 40.0456 18.0407 40.0456 17.6155C40.0456 17.1902 40.159 16.7791 40.3858 16.3822C40.6126 15.957 40.9953 15.6451 41.534 15.4467C42.8381 14.908 44.0856 14.5253 45.2763 14.2985C46.4954 14.0717 47.601 13.9583 48.5933 13.9583C50.6346 13.9583 52.3072 14.2701 53.6114 14.8938C54.9439 15.5175 55.9361 16.4673 56.5882 17.7431C57.2403 18.9905 57.5663 20.6065 57.5663 22.591V32.7973C57.5663 33.6761 57.3537 34.3565 56.9284 34.8385C56.5031 35.2921 55.8936 35.5189 55.0998 35.5189C54.306 35.5189 53.6823 35.2921 53.2286 34.8385C52.8034 34.3565 52.5908 33.6761 52.5908 32.7973V30.756H52.931C52.7325 31.7483 52.3356 32.613 51.7402 33.3501C51.1732 34.0589 50.4503 34.6117 49.5714 35.0086C48.6925 35.4055 47.6861 35.604 46.5521 35.604ZM64.3226 35.5189C63.4721 35.5189 62.82 35.2921 62.3664 34.8385C61.9128 34.3565 61.686 33.6761 61.686 32.7973V16.7224C61.686 15.8436 61.9128 15.1773 62.3664 14.7237C62.82 14.2701 63.4579 14.0433 64.2801 14.0433C65.1022 14.0433 65.7401 14.2701 66.1937 14.7237C66.6474 15.1773 66.8742 15.8436 66.8742 16.7224V19.6142L66.4064 18.5511C67.0301 17.0485 67.994 15.9144 69.2981 15.149C70.6306 14.3552 72.1332 13.9583 73.8059 13.9583C75.4786 13.9583 76.8536 14.2701 77.9309 14.8938C79.0082 15.5175 79.8162 16.4673 80.3549 17.7431C80.8936 18.9905 81.1629 20.5781 81.1629 22.506V32.7973C81.1629 33.6761 80.9361 34.3565 80.4825 34.8385C80.0289 35.2921 79.3768 35.5189 78.5263 35.5189C77.6758 35.5189 77.0095 35.2921 76.5276 34.8385C76.0739 34.3565 75.8471 33.6761 75.8471 32.7973V22.7611C75.8471 21.1451 75.5353 19.9686 74.9116 19.2315C74.3162 18.4944 73.3806 18.1258 72.1049 18.1258C70.5456 18.1258 69.2981 18.6219 68.3626 19.6142C67.4553 20.5781 67.0017 21.8681 67.0017 23.4841V32.7973C67.0017 34.6117 66.1087 35.5189 64.3226 35.5189ZM86.562 35.1787C86.0234 35.1787 85.5698 35.0511 85.2012 34.796C84.861 34.5125 84.6342 34.1581 84.5208 33.7328C84.4074 33.3076 84.4074 32.854 84.5208 32.372C84.6625 31.8617 84.9319 31.3797 85.3288 30.9261L96.343 17.1052V18.381H86.3069C85.6548 18.381 85.1445 18.2108 84.7759 17.8706C84.4357 17.5021 84.2656 17.0059 84.2656 16.3822C84.2656 15.7302 84.4357 15.234 84.7759 14.8938C85.1445 14.5536 85.6548 14.3835 86.3069 14.3835H98.8946C99.5183 14.3835 100.029 14.5253 100.425 14.8088C100.822 15.0639 101.078 15.4041 101.191 15.8294C101.333 16.2547 101.347 16.7083 101.233 17.1902C101.12 17.6722 100.865 18.1258 100.468 18.5511L89.2412 32.5846V31.1813H99.8727C101.233 31.1813 101.914 31.8475 101.914 33.18C101.914 33.8037 101.73 34.2998 101.361 34.6684C101.021 35.0086 100.525 35.1787 99.8727 35.1787H86.562ZM110.791 35.604C109.289 35.604 107.942 35.3205 106.751 34.7535C105.589 34.1581 104.667 33.3643 103.987 32.372C103.335 31.3797 103.009 30.2599 103.009 29.0124C103.009 27.4815 103.406 26.2766 104.2 25.3977C104.993 24.4905 106.283 23.8385 108.07 23.4415C109.856 23.0446 112.251 22.8462 115.256 22.8462H117.383V25.908H115.299C113.541 25.908 112.138 25.9931 111.089 26.1632C110.04 26.3333 109.289 26.631 108.835 27.0562C108.41 27.4532 108.197 28.0202 108.197 28.7573C108.197 29.6929 108.523 30.4583 109.175 31.0537C109.827 31.6491 110.734 31.9467 111.897 31.9467C112.832 31.9467 113.655 31.7341 114.363 31.3088C115.1 30.8552 115.682 30.2457 116.107 29.4802C116.532 28.7148 116.745 27.8359 116.745 26.8436V21.9531C116.745 20.5356 116.433 19.515 115.809 18.8913C115.186 18.2675 114.137 17.9557 112.662 17.9557C111.84 17.9557 110.947 18.0549 109.983 18.2534C109.048 18.4518 108.055 18.792 107.006 19.274C106.468 19.5292 105.986 19.6 105.561 19.4866C105.164 19.3732 104.852 19.1464 104.625 18.8062C104.398 18.4377 104.285 18.0407 104.285 17.6155C104.285 17.1902 104.398 16.7791 104.625 16.3822C104.852 15.957 105.234 15.6451 105.773 15.4467C107.077 14.908 108.325 14.5253 109.515 14.2985C110.734 14.0717 111.84 13.9583 112.832 13.9583C114.874 13.9583 116.546 14.2701 117.851 14.8938C119.183 15.5175 120.175 16.4673 120.827 17.7431C121.479 18.9905 121.805 20.6065 121.805 22.591V32.7973C121.805 33.6761 121.593 34.3565 121.168 34.8385C120.742 35.2921 120.133 35.5189 119.339 35.5189C118.545 35.5189 117.921 35.2921 117.468 34.8385C117.043 34.3565 116.83 33.6761 116.83 32.7973V30.756H117.17C116.972 31.7483 116.575 32.613 115.979 33.3501C115.412 34.0589 114.689 34.6117 113.811 35.0086C112.932 35.4055 111.925 35.604 110.791 35.604ZM128.562 35.5189C127.711 35.5189 127.059 35.2921 126.606 34.8385C126.152 34.3565 125.925 33.6761 125.925 32.7973V16.7224C125.925 15.8436 126.152 15.1773 126.606 14.7237C127.059 14.2701 127.697 14.0433 128.519 14.0433C129.341 14.0433 129.979 14.2701 130.433 14.7237C130.886 15.1773 131.113 15.8436 131.113 16.7224V19.6142L130.646 18.5511C131.269 17.0485 132.233 15.9144 133.537 15.149C134.87 14.3552 136.372 13.9583 138.045 13.9583C139.718 13.9583 141.093 14.2701 142.17 14.8938C143.247 15.5175 144.055 16.4673 144.594 17.7431C145.133 18.9905 145.402 20.5781 145.402 22.506V32.7973C145.402 33.6761 145.175 34.3565 144.722 34.8385C144.268 35.2921 143.616 35.5189 142.765 35.5189C141.915 35.5189 141.249 35.2921 140.767 34.8385C140.313 34.3565 140.086 33.6761 140.086 32.7973V22.7611C140.086 21.1451 139.774 19.9686 139.151 19.2315C138.555 18.4944 137.62 18.1258 136.344 18.1258C134.785 18.1258 133.537 18.6219 132.602 19.6142C131.694 20.5781 131.241 21.8681 131.241 23.4841V32.7973C131.241 34.6117 130.348 35.5189 128.562 35.5189ZM156.372 35.604C154.869 35.604 153.523 35.3205 152.332 34.7535C151.17 34.1581 150.248 33.3643 149.568 32.372C148.916 31.3797 148.59 30.2599 148.59 29.0124C148.59 27.4815 148.987 26.2766 149.781 25.3977C150.574 24.4905 151.864 23.8385 153.65 23.4415C155.436 23.0446 157.832 22.8462 160.837 22.8462H162.964V25.908H160.88C159.122 25.908 157.719 25.9931 156.67 26.1632C155.621 26.3333 154.869 26.631 154.416 27.0562C153.991 27.4532 153.778 28.0202 153.778 28.7573C153.778 29.6929 154.104 30.4583 154.756 31.0537C155.408 31.6491 156.315 31.9467 157.478 31.9467C158.413 31.9467 159.235 31.7341 159.944 31.3088C160.681 30.8552 161.263 30.2457 161.688 29.4802C162.113 28.7148 162.326 27.8359 162.326 26.8436V21.9531C162.326 20.5356 162.014 19.515 161.39 18.8913C160.766 18.2675 159.717 17.9557 158.243 17.9557C157.421 17.9557 156.528 18.0549 155.564 18.2534C154.628 18.4518 153.636 18.792 152.587 19.274C152.049 19.5292 151.567 19.6 151.141 19.4866C150.744 19.3732 150.433 19.1464 150.206 18.8062C149.979 18.4377 149.866 18.0407 149.866 17.6155C149.866 17.1902 149.979 16.7791 150.206 16.3822C150.433 15.957 150.815 15.6451 151.354 15.4467C152.658 14.908 153.906 14.5253 155.096 14.2985C156.315 14.0717 157.421 13.9583 158.413 13.9583C160.455 13.9583 162.127 14.2701 163.431 14.8938C164.764 15.5175 165.756 16.4673 166.408 17.7431C167.06 18.9905 167.386 20.6065 167.386 22.591V32.7973C167.386 33.6761 167.174 34.3565 166.748 34.8385C166.323 35.2921 165.714 35.5189 164.92 35.5189C164.126 35.5189 163.502 35.2921 163.049 34.8385C162.623 34.3565 162.411 33.6761 162.411 32.7973V30.756H162.751C162.552 31.7483 162.156 32.613 161.56 33.3501C160.993 34.0589 160.27 34.6117 159.391 35.0086C158.513 35.4055 157.506 35.604 156.372 35.604Z" fill="#78BE20"/>
<path d="M188.284 43.2586C186.753 43.2586 185.265 43.1169 183.819 42.8334C182.401 42.5499 181.112 42.1104 179.949 41.5151C179.41 41.2316 179.042 40.8914 178.843 40.4945C178.673 40.0975 178.617 39.6865 178.673 39.2612C178.758 38.8643 178.929 38.5099 179.184 38.1981C179.467 37.8862 179.807 37.6736 180.204 37.5602C180.601 37.4468 181.012 37.5035 181.438 37.7303C182.685 38.354 183.862 38.7509 184.967 38.921C186.101 39.1195 187.065 39.2187 187.859 39.2187C189.758 39.2187 191.176 38.7509 192.112 37.8153C193.075 36.9081 193.557 35.5473 193.557 33.7328V29.9055H193.94C193.515 31.3514 192.622 32.5137 191.261 33.3926C189.929 34.2431 188.412 34.6684 186.711 34.6684C184.84 34.6684 183.209 34.2431 181.82 33.3926C180.431 32.5137 179.354 31.2947 178.588 29.7354C177.823 28.1761 177.44 26.3617 177.44 24.2921C177.44 22.7328 177.653 21.3294 178.078 20.082C178.532 18.8062 179.155 17.7147 179.949 16.8075C180.771 15.9003 181.749 15.2057 182.883 14.7237C184.046 14.2134 185.322 13.9583 186.711 13.9583C188.469 13.9583 189.999 14.3977 191.304 15.2766C192.636 16.1271 193.501 17.2611 193.898 18.6786L193.472 19.7418V16.7224C193.472 15.8436 193.699 15.1773 194.153 14.7237C194.635 14.2701 195.287 14.0433 196.109 14.0433C196.96 14.0433 197.612 14.2701 198.065 14.7237C198.519 15.1773 198.746 15.8436 198.746 16.7224V33.0949C198.746 36.4687 197.853 39.006 196.066 40.7071C194.28 42.4081 191.686 43.2586 188.284 43.2586ZM188.157 30.6284C189.262 30.6284 190.212 30.3733 191.006 29.863C191.8 29.3527 192.409 28.6297 192.835 27.6941C193.288 26.7302 193.515 25.5962 193.515 24.2921C193.515 22.3359 193.033 20.8049 192.069 19.6993C191.105 18.5652 189.801 17.9982 188.157 17.9982C187.051 17.9982 186.101 18.2534 185.307 18.7637C184.514 19.274 183.89 19.9969 183.436 20.9325C183.011 21.8681 182.798 22.9879 182.798 24.2921C182.798 26.2483 183.28 27.7934 184.244 28.9274C185.208 30.0614 186.512 30.6284 188.157 30.6284ZM205.741 35.5189C204.862 35.5189 204.182 35.2921 203.7 34.8385C203.246 34.3565 203.019 33.6761 203.019 32.7973V16.7224C203.019 15.8436 203.246 15.1773 203.7 14.7237C204.153 14.2701 204.791 14.0433 205.613 14.0433C206.435 14.0433 207.073 14.2701 207.527 14.7237C207.981 15.1773 208.207 15.8436 208.207 16.7224V19.4016H207.782C208.179 17.7005 208.959 16.4106 210.121 15.5317C211.283 14.6528 212.828 14.1284 214.756 13.9583C215.352 13.9015 215.819 14.0575 216.16 14.426C216.528 14.7662 216.741 15.3049 216.798 16.042C216.854 16.7508 216.684 17.332 216.287 17.7856C215.919 18.2108 215.352 18.466 214.586 18.5511L213.651 18.6361C211.921 18.8062 210.617 19.3449 209.738 20.2521C208.859 21.131 208.42 22.3784 208.42 23.9944V32.7973C208.42 33.6761 208.193 34.3565 207.74 34.8385C207.286 35.2921 206.62 35.5189 205.741 35.5189ZM227.548 35.604C225.393 35.604 223.522 35.1645 221.934 34.2857C220.347 33.4068 219.113 32.1594 218.234 30.5434C217.356 28.899 216.916 26.9712 216.916 24.7598C216.916 23.0872 217.157 21.5988 217.639 20.2946C218.149 18.9621 218.872 17.8281 219.808 16.8925C220.743 15.9286 221.863 15.2057 223.167 14.7237C224.472 14.2134 225.932 13.9583 227.548 13.9583C229.702 13.9583 231.573 14.3977 233.161 15.2766C234.749 16.1554 235.982 17.4029 236.861 19.0188C237.74 20.6348 238.179 22.5485 238.179 24.7598C238.179 26.4325 237.924 27.9351 237.414 29.2676C236.932 30.6001 236.223 31.7483 235.287 32.7122C234.352 33.6478 233.232 34.3707 231.928 34.881C230.624 35.363 229.164 35.604 227.548 35.604ZM227.548 31.564C228.597 31.564 229.518 31.3088 230.312 30.7985C231.106 30.2882 231.715 29.5369 232.14 28.5447C232.594 27.524 232.821 26.2624 232.821 24.7598C232.821 22.4918 232.339 20.8049 231.375 19.6993C230.411 18.5652 229.135 17.9982 227.548 17.9982C226.499 17.9982 225.577 18.2534 224.783 18.7637C223.99 19.2456 223.366 19.9969 222.912 21.0176C222.487 22.0098 222.274 23.2573 222.274 24.7598C222.274 26.9995 222.756 28.7006 223.72 29.863C224.684 30.997 225.96 31.564 227.548 31.564ZM248.818 35.604C247.089 35.604 245.657 35.2921 244.523 34.6684C243.389 34.0163 242.538 33.0524 241.971 31.7766C241.433 30.5009 241.163 28.9132 241.163 27.0137V16.7224C241.163 15.8152 241.39 15.149 241.844 14.7237C242.297 14.2701 242.949 14.0433 243.8 14.0433C244.65 14.0433 245.302 14.2701 245.756 14.7237C246.238 15.149 246.479 15.8152 246.479 16.7224V27.0988C246.479 28.573 246.777 29.6645 247.372 30.3733C247.967 31.082 248.917 31.4364 250.221 31.4364C251.639 31.4364 252.801 30.9545 253.708 29.9905C254.616 28.9983 255.069 27.6941 255.069 26.0782V16.7224C255.069 15.8152 255.296 15.149 255.75 14.7237C256.203 14.2701 256.855 14.0433 257.706 14.0433C258.556 14.0433 259.208 14.2701 259.662 14.7237C260.144 15.149 260.385 15.8152 260.385 16.7224V32.7973C260.385 34.6117 259.52 35.5189 257.791 35.5189C256.969 35.5189 256.331 35.2921 255.877 34.8385C255.424 34.3565 255.197 33.6761 255.197 32.7973V29.5653L255.792 30.8411C255.197 32.372 254.29 33.5485 253.071 34.3707C251.88 35.1929 250.462 35.604 248.818 35.604ZM267.279 43.1736C266.428 43.1736 265.776 42.9468 265.322 42.4932C264.869 42.0396 264.642 41.3733 264.642 40.4945V16.7224C264.642 15.8436 264.869 15.1773 265.322 14.7237C265.776 14.2701 266.414 14.0433 267.236 14.0433C268.087 14.0433 268.739 14.2701 269.192 14.7237C269.646 15.1773 269.873 15.8436 269.873 16.7224V20.0395L269.405 18.7637C269.83 17.3178 270.695 16.1554 271.999 15.2766C273.331 14.3977 274.877 13.9583 276.634 13.9583C278.449 13.9583 280.036 14.3977 281.397 15.2766C282.786 16.1554 283.864 17.4029 284.629 19.0188C285.395 20.6065 285.777 22.5201 285.777 24.7598C285.777 26.9712 285.395 28.899 284.629 30.5434C283.864 32.1594 282.801 33.4068 281.44 34.2857C280.079 35.1645 278.477 35.604 276.634 35.604C274.905 35.604 273.388 35.1787 272.084 34.3282C270.78 33.4493 269.901 32.3153 269.447 30.9261H269.958V40.4945C269.958 41.3733 269.717 42.0396 269.235 42.4932C268.781 42.9468 268.129 43.1736 267.279 43.1736ZM275.146 31.564C276.195 31.564 277.116 31.3088 277.91 30.7985C278.704 30.2882 279.313 29.5369 279.739 28.5447C280.192 27.524 280.419 26.2624 280.419 24.7598C280.419 22.4918 279.937 20.8049 278.973 19.6993C278.009 18.5652 276.733 17.9982 275.146 17.9982C274.097 17.9982 273.175 18.2534 272.382 18.7637C271.588 19.2456 270.964 19.9969 270.511 21.0176C270.085 22.0098 269.873 23.2573 269.873 24.7598C269.873 26.9995 270.355 28.7006 271.319 29.863C272.282 30.997 273.558 31.564 275.146 31.564Z" fill="#53565A"/>
<path d="M114.487 11.3323C114.719 11.3434 114.908 11.1542 114.897 10.9222C114.811 9.13484 114.086 7.37246 112.721 6.00749C111.356 4.64252 109.594 3.91717 107.806 3.83146C107.574 3.82033 107.385 4.00958 107.396 4.24157C107.482 6.02891 108.207 7.79129 109.572 9.15626C110.937 10.5212 112.7 11.2466 114.487 11.3323Z" fill="#78BE20"/>
</svg>
