<svg width="22" height="21" viewBox="0 0 22 21" fill="none" xmlns="http://www.w3.org/2000/svg">
<g clip-path="url(#clip0_1030_739)">
<path d="M1.31664 2.85338C1.33947 2.83055 1.33947 2.83055 1.36229 2.80772L3.82751 0.662071C4.1699 0.342506 4.62642 0.182723 5.1286 0.228376C5.56229 0.274028 5.99599 0.456637 6.31555 0.776202C6.33838 0.799028 6.36121 0.821854 6.38403 0.84468L8.8036 3.90338C9.44273 4.58816 9.4199 5.63816 8.75794 6.30012C8.71229 6.34577 8.66664 6.39142 8.62099 6.41425L7.38838 7.23598C7.47968 7.66968 8.11881 8.90229 10.3786 11.1621C12.6156 13.399 13.871 14.0382 14.2819 14.1295L15.1036 12.8969C15.1264 12.8512 15.1721 12.8055 15.2177 12.7599C15.8797 12.0979 16.9525 12.0979 17.6145 12.7142L20.6503 15.1338C20.6732 15.1566 20.696 15.1795 20.7188 15.2023C21.4036 15.8871 21.4492 17.0284 20.8329 17.6903L18.6873 20.1327C18.6645 20.1556 18.6645 20.1556 18.6416 20.1784C18.2308 20.5892 17.5916 20.749 16.884 20.749C15.6286 20.749 14.1906 20.2469 13.4373 19.9501C11.9764 19.3795 9.12316 17.9871 6.29273 15.1566C4.19273 13.0566 2.5036 10.5229 1.49925 8.01207C1.08838 6.87077 0.129684 4.04033 1.31664 2.85338ZM7.61664 13.9012C11.8395 18.124 16.5873 19.2882 17.3862 18.9001L19.4634 16.5034L16.496 14.1523L15.6971 15.3621C15.6742 15.3849 15.6742 15.4077 15.6514 15.4305C15.3775 15.7729 14.9895 15.9556 14.5329 15.9784C14.0992 16.0012 12.7525 16.0697 9.12316 12.4403C8.23294 11.5501 5.49381 8.81098 5.58512 7.03055C5.60794 6.57403 5.81338 6.18598 6.13295 5.91207C6.15577 5.88925 6.1786 5.86642 6.20142 5.86642L7.36555 5.04468L5.01447 2.05446L2.64055 4.13164C2.22968 4.93055 3.39381 9.67838 7.61664 13.9012Z" fill="#53565A"/>
</g>
<defs>
<clipPath id="clip0_1030_739">
<rect width="21" height="21" fill="white" transform="matrix(-1 0 0 1 21.5176 0)"/>
</clipPath>
</defs>
</svg>
